HIERARCHY
ROOT mixamorig:Hips
{
	OFFSET 0.000000 201.639420 0.000000
	CHANNELS 6 Xposition Yposition Zposition Xrotation Yrotation Zrotation
	JOINT mixamorig:Spine
	{
		OFFSET 0.006200 19.524994 -2.481800
		CHANNELS 3 Xrotation Yrotation Zrotation
		JOINT mixamorig:Spine1
		{
			OFFSET -0.000900 22.835007 -2.825400
			CHANNELS 3 Xrotation Yrotation Zrotation
			JOINT mixamorig:Spine2
			{
				OFFSET -0.020600 26.552490 -3.193300
				CHANNELS 3 Xrotation Yrotation Zrotation
				JOINT mixamorig:Neck
				{
					OFFSET -0.060000 30.701813 1.352200
					CHANNELS 3 Xrotation Yrotation Zrotation
					JOINT mixamorig:Head
					{
						OFFSET -0.087200 22.547607 3.670900
						CHANNELS 3 Xrotation Yrotation Zrotation
						JOINT mixamorig:HeadTop_End
						{
							OFFSET -0.830600 40.355194 7.893500
							CHANNELS 3 Xrotation Yrotation Zrotation
							End Site
							{
								OFFSET 0.000000 30.592346 0.000000
							}
						}
						JOINT mixamorig:RightEye
						{
							OFFSET -6.302100 18.118591 16.197100
							CHANNELS 3 Xrotation Yrotation Zrotation
							End Site
							{
								OFFSET 0.000000 30.592346 0.000000
							}
						}
						JOINT mixamorig:LeftEye
						{
							OFFSET 6.741500 18.382690 16.401899
							CHANNELS 3 Xrotation Yrotation Zrotation
							End Site
							{
								OFFSET 0.000000 30.592346 0.000000
							}
						}
					}
				}
				JOINT mixamorig:LeftShoulder
				{
					OFFSET 11.924900 18.230499 1.425400
					CHANNELS 3 Xrotation Yrotation Zrotation
					JOINT mixamorig:LeftArm
					{
						OFFSET 25.435989 -0.697632 -5.229300
						CHANNELS 3 Xrotation Yrotation Zrotation
						JOINT mixamorig:LeftForeArm
						{
							OFFSET 54.684776 0.000000 0.000000
							CHANNELS 3 Xrotation Yrotation Zrotation
							JOINT mixamorig:LeftHand
							{
								OFFSET 55.098175 0.000000 0.000000
								CHANNELS 3 Xrotation Yrotation Zrotation
								JOINT mixamorig:LeftHandMiddle1
								{
									OFFSET 23.369751 0.000000 0.000000
									CHANNELS 3 Xrotation Yrotation Zrotation
									JOINT mixamorig:LeftHandMiddle2
									{
										OFFSET 6.378677 0.000000 0.000000
										CHANNELS 3 Xrotation Yrotation Zrotation
										JOINT mixamorig:LeftHandMiddle3
										{
											OFFSET 6.148331 0.000000 0.000000
											CHANNELS 3 Xrotation Yrotation Zrotation
											JOINT mixamorig:LeftHandMiddle4
											{
												OFFSET 6.582504 0.000000 0.000000
												CHANNELS 3 Xrotation Yrotation Zrotation
												End Site
												{
													OFFSET -1.168900 6.395691 1.028606
												}
											}
										}
									}
								}
								JOINT mixamorig:LeftHandThumb1
								{
									OFFSET 7.235672 -3.848206 5.434273
									CHANNELS 3 Xrotation Yrotation Zrotation
									JOINT mixamorig:LeftHandThumb2
									{
										OFFSET 6.568451 -3.792297 3.792300
										CHANNELS 3 Xrotation Yrotation Zrotation
										JOINT mixamorig:LeftHandThumb3
										{
											OFFSET 6.063080 -3.500519 3.500518
											CHANNELS 3 Xrotation Yrotation Zrotation
											JOINT mixamorig:LeftHandThumb4
											{
												OFFSET 4.793182 -2.767334 2.767349
												CHANNELS 3 Xrotation Yrotation Zrotation
												End Site
												{
													OFFSET 0.101639 6.054260 1.275483
												}
											}
										}
									}
								}
								JOINT mixamorig:LeftHandIndex1
								{
									OFFSET 23.101074 -0.309540 4.992809
									CHANNELS 3 Xrotation Yrotation Zrotation
									JOINT mixamorig:LeftHandIndex2
									{
										OFFSET 6.226883 0.000000 0.000000
										CHANNELS 3 Xrotation Yrotation Zrotation
										JOINT mixamorig:LeftHandIndex3
										{
											OFFSET 6.094330 0.000000 0.000000
											CHANNELS 3 Xrotation Yrotation Zrotation
											JOINT mixamorig:LeftHandIndex4
											{
												OFFSET 5.482605 0.000000 0.000000
												CHANNELS 3 Xrotation Yrotation Zrotation
												End Site
												{
													OFFSET -1.427902 5.233032 0.797164
												}
											}
										}
									}
								}
								JOINT mixamorig:LeftHandRing1
								{
									OFFSET 22.299240 0.021149 -3.964172
									CHANNELS 3 Xrotation Yrotation Zrotation
									JOINT mixamorig:LeftHandRing2
									{
										OFFSET 6.321869 0.000000 0.000000
										CHANNELS 3 Xrotation Yrotation Zrotation
										JOINT mixamorig:LeftHandRing3
										{
											OFFSET 5.899796 0.000000 0.000000
											CHANNELS 3 Xrotation Yrotation Zrotation
											JOINT mixamorig:LeftHandRing4
											{
												OFFSET 6.517899 0.000000 0.000000
												CHANNELS 3 Xrotation Yrotation Zrotation
												End Site
												{
													OFFSET -1.637299 6.232208 0.980890
												}
											}
										}
									}
								}
								JOINT mixamorig:LeftHandPinky1
								{
									OFFSET 20.463791 -0.302338 -8.562233
									CHANNELS 3 Xrotation Yrotation Zrotation
									JOINT mixamorig:LeftHandPinky2
									{
										OFFSET 6.908646 0.000000 0.000000
										CHANNELS 3 Xrotation Yrotation Zrotation
										JOINT mixamorig:LeftHandPinky3
										{
											OFFSET 4.622849 0.000000 0.000000
											CHANNELS 3 Xrotation Yrotation Zrotation
											JOINT mixamorig:LeftHandPinky4
											{
												OFFSET 5.216080 0.000000 0.000000
												CHANNELS 3 Xrotation Yrotation Zrotation
												End Site
												{
													OFFSET -0.606308 5.116241 0.814926
												}
											}
										}
									}
								}
							}
						}
					}
				}
				JOINT mixamorig:RightShoulder
				{
					OFFSET -12.001300 18.284088 1.348900
					CHANNELS 3 Xrotation Yrotation Zrotation
					JOINT mixamorig:RightArm
					{
						OFFSET -25.308500 -0.751312 -5.164599
						CHANNELS 3 Xrotation Yrotation Zrotation
						JOINT mixamorig:RightForeArm
						{
							OFFSET -54.684429 0.000000 0.000000
							CHANNELS 3 Xrotation Yrotation Zrotation
							JOINT mixamorig:RightHand
							{
								OFFSET -55.150291 0.000000 0.000000
								CHANNELS 3 Xrotation Yrotation Zrotation
								JOINT mixamorig:RightHandMiddle1
								{
									OFFSET -23.317566 0.000000 0.000000
									CHANNELS 3 Xrotation Yrotation Zrotation
									JOINT mixamorig:RightHandMiddle2
									{
										OFFSET -6.378403 0.000000 0.000000
										CHANNELS 3 Xrotation Yrotation Zrotation
										JOINT mixamorig:RightHandMiddle3
										{
											OFFSET -6.148193 0.000000 0.000000
											CHANNELS 3 Xrotation Yrotation Zrotation
											JOINT mixamorig:RightHandMiddle4
											{
												OFFSET -6.583389 0.000000 0.000000
												CHANNELS 3 Xrotation Yrotation Zrotation
												End Site
												{
													OFFSET 1.171692 6.395905 1.029786
												}
											}
										}
									}
								}
								JOINT mixamorig:RightHandThumb1
								{
									OFFSET -7.190521 -3.860474 5.435846
									CHANNELS 3 Xrotation Yrotation Zrotation
									JOINT mixamorig:RightHandThumb2
									{
										OFFSET -6.567429 -3.791718 3.791708
										CHANNELS 3 Xrotation Yrotation Zrotation
										JOINT mixamorig:RightHandThumb3
										{
											OFFSET -6.062469 -3.500153 3.500166
											CHANNELS 3 Xrotation Yrotation Zrotation
											JOINT mixamorig:RightHandThumb4
											{
												OFFSET -4.792618 -2.767029 2.767022
												CHANNELS 3 Xrotation Yrotation Zrotation
												End Site
												{
													OFFSET -0.100327 6.053253 1.276754
												}
											}
										}
									}
								}
								JOINT mixamorig:RightHandIndex1
								{
									OFFSET -23.048981 -0.310791 4.992554
									CHANNELS 3 Xrotation Yrotation Zrotation
									JOINT mixamorig:RightHandIndex2
									{
										OFFSET -6.227539 0.000000 0.000000
										CHANNELS 3 Xrotation Yrotation Zrotation
										JOINT mixamorig:RightHandIndex3
										{
											OFFSET -6.095047 0.000000 0.000000
											CHANNELS 3 Xrotation Yrotation Zrotation
											JOINT mixamorig:RightHandIndex4
											{
												OFFSET -5.484772 0.000000 0.000000
												CHANNELS 3 Xrotation Yrotation Zrotation
												End Site
												{
													OFFSET 1.420593 5.237305 0.797056
												}
											}
										}
									}
								}
								JOINT mixamorig:RightHandRing1
								{
									OFFSET -22.246323 0.020569 -3.963762
									CHANNELS 3 Xrotation Yrotation Zrotation
									JOINT mixamorig:RightHandRing2
									{
										OFFSET -6.322128 0.000000 0.000000
										CHANNELS 3 Xrotation Yrotation Zrotation
										JOINT mixamorig:RightHandRing3
										{
											OFFSET -5.900024 0.000000 0.000000
											CHANNELS 3 Xrotation Yrotation Zrotation
											JOINT mixamorig:RightHandRing4
											{
												OFFSET -6.518356 0.000000 0.000000
												CHANNELS 3 Xrotation Yrotation Zrotation
												End Site
												{
													OFFSET 1.636398 6.232697 0.982186
												}
											}
										}
									}
								}
								JOINT mixamorig:RightHandPinky1
								{
									OFFSET -20.411011 -0.303314 -8.561701
									CHANNELS 3 Xrotation Yrotation Zrotation
									JOINT mixamorig:RightHandPinky2
									{
										OFFSET -6.907349 0.000000 0.000000
										CHANNELS 3 Xrotation Yrotation Zrotation
										JOINT mixamorig:RightHandPinky3
										{
											OFFSET -4.623840 0.000000 0.000000
											CHANNELS 3 Xrotation Yrotation Zrotation
											JOINT mixamorig:RightHandPinky4
											{
												OFFSET -5.218353 0.000000 0.000000
												CHANNELS 3 Xrotation Yrotation Zrotation
												End Site
												{
													OFFSET 0.602097 5.118835 0.816273
												}
											}
										}
									}
								}
							}
						}
					}
				}
			}
		}
	}
	JOINT mixamorig:LeftUpLeg
	{
		OFFSET 18.168400 -13.561905 -0.039000
		CHANNELS 3 Xrotation Yrotation Zrotation
		JOINT mixamorig:LeftLeg
		{
			OFFSET 0.577358 -80.825211 -3.695000
			CHANNELS 3 Xrotation Yrotation Zrotation
			JOINT mixamorig:LeftFoot
			{
				OFFSET -0.577356 -83.370262 -6.520700
				CHANNELS 3 Xrotation Yrotation Zrotation
				JOINT mixamorig:LeftToeBase
				{
					OFFSET 0.750401 -20.798306 25.135401
					CHANNELS 3 Xrotation Yrotation Zrotation
					JOINT mixamorig:LeftToe_End
					{
						OFFSET -0.000500 0.001200 19.917799
						CHANNELS 3 Xrotation Yrotation Zrotation
						End Site
						{
							OFFSET 0.000000 19.917805 0.000000
						}
					}
				}
			}
		}
	}
	JOINT mixamorig:RightUpLeg
	{
		OFFSET -18.162500 -13.585098 -0.041000
		CHANNELS 3 Xrotation Yrotation Zrotation
		JOINT mixamorig:RightLeg
		{
			OFFSET -0.595024 -80.945297 -3.631900
			CHANNELS 3 Xrotation Yrotation Zrotation
			JOINT mixamorig:RightFoot
			{
				OFFSET 0.595024 -83.218193 -6.561200
				CHANNELS 3 Xrotation Yrotation Zrotation
				JOINT mixamorig:RightToeBase
				{
					OFFSET -0.753601 -20.807106 25.115000
					CHANNELS 3 Xrotation Yrotation Zrotation
					JOINT mixamorig:RightToe_End
					{
						OFFSET 0.000299 0.001700 19.918200
						CHANNELS 3 Xrotation Yrotation Zrotation
						End Site
						{
							OFFSET 0.000000 19.918203 0.000000
						}
					}
				}
			}
		}
	}
}
MOTION
Frames: 6
Frame Time: 0.033333
4.394848 193.572205 7.750997 -3.633549 -24.012631 -3.394980 3.386530 -3.734253 -2.272369 6.637778 -7.602381 -4.391122 6.637780 -7.602386 -4.391120 4.194009 15.495348 18.288217 -11.428399 24.028742 -10.684798 0.000000 0.000001 -0.000000 0.000000 0.000001 -0.000000 0.000000 0.000001 -0.000000 0.514444 -10.434484 -13.772311 5.981184 -3.478149 -29.584954 -0.025137 -48.103291 0.072484 16.786086 1.022618 6.950036 1.599754 6.791365 -10.444724 -0.354387 -1.268257 -22.165914 0.000001 0.000005 0.000001 -0.000001 0.000001 -0.000002 6.887303 5.475463 -0.244846 -2.604883 0.905490 2.144722 0.000016 -0.000018 -0.000005 0.000002 -0.000001 0.000001 7.317392 -1.272206 -11.907860 0.071042 0.768042 -17.129471 0.000002 -0.000002 0.000004 -0.000000 -0.000001 -0.000002 1.496680 10.643880 -12.992893 -0.419522 -3.342949 -30.091672 0.000001 0.000013 0.000013 -0.000001 0.000002 -0.000002 -2.769754 15.980862 -18.676830 -1.205354 -6.730396 -35.100124 -0.000003 0.000004 0.000002 0.000001 -0.000003 0.000001 0.593224 2.445304 -6.242426 46.085253 -1.000781 40.650803 -0.258884 115.147086 0.156196 -28.088096 -8.737110 27.000226 -0.114424 -1.495024 14.677090 -3.965671 3.033591 96.870865 0.000000 -0.000000 0.000010 0.000001 0.000001 -0.000002 13.521242 -10.011779 -28.611809 30.047098 8.630794 -3.744918 0.000002 0.000000 0.000003 -0.000003 -0.000000 0.000000 2.917145 -4.284940 -9.031379 0.264963 -1.404342 24.838502 0.000004 0.000004 -0.000001 -0.000001 0.000001 0.000000 -6.770060 1.588574 28.131280 -6.080027 6.652349 88.886832 0.000004 0.000005 0.000011 -0.000004 -0.000000 -0.000003 1.538789 -0.374313 16.944685 -4.888048 13.860230 64.395099 -0.000003 -0.000002 0.000001 -0.000004 -0.000000 0.000000 -10.629441 7.544963 13.621492 31.376417 0.033245 -1.141523 -14.848633 9.080014 -8.876467 -1.259632 -1.953501 0.103454 -0.000000 -0.000000 0.000000 -10.637595 10.142786 -8.364636 25.609765 -0.118542 0.945828 -10.594530 -8.883428 11.294548 -0.905208 -0.469094 0.394293 -0.000000 -0.000000 0.000000 
4.294168 193.669556 8.050985 -3.558012 -23.837770 -3.131375 3.186996 -3.426919 -2.215214 6.252116 -6.978458 -4.289308 6.252112 -6.978434 -4.289311 4.844951 14.750757 17.498026 -11.333907 22.766494 -10.035870 0.000000 -0.000000 0.000000 0.000000 -0.000000 0.000000 0.000000 -0.000000 0.000000 0.521298 -10.418254 -13.710496 5.460013 -3.541144 -30.322215 -0.030250 -46.733869 0.067409 16.650674 0.879965 6.981477 1.598917 6.809691 -10.210873 -0.341471 -1.236692 -21.749341 0.000001 0.000005 0.000001 -0.000000 -0.000001 -0.000002 7.138451 4.561560 -1.279912 -2.605076 0.905535 2.144927 0.000016 -0.000020 -0.000003 -0.000001 0.000001 -0.000000 7.206010 -1.822061 -11.846435 0.068430 0.761477 -16.701062 -0.000003 -0.000000 0.000004 -0.000001 -0.000000 0.000000 1.498060 10.664382 -12.787631 -0.400437 -3.309773 -29.643018 -0.000001 0.000014 0.000011 -0.000000 0.000001 -0.000000 -2.603345 16.481320 -18.490157 -1.175041 -6.688304 -34.653743 -0.000003 0.000001 0.000002 0.000001 -0.000002 -0.000000 0.638031 2.675780 -6.096665 39.776925 -4.872427 38.505086 -0.254609 117.110301 0.162589 -25.789744 -8.337649 26.344255 -0.351353 -0.536292 15.390498 -3.979170 3.026977 96.988085 0.000001 -0.000000 0.000016 -0.000005 0.000000 0.000001 14.716672 -16.020967 -28.682894 30.418439 8.687828 -3.901429 -0.000001 -0.000004 0.000005 0.000001 -0.000000 0.000004 2.637777 -5.156207 -11.257043 0.319874 -1.483452 27.084190 0.000005 0.000005 -0.000001 -0.000001 0.000001 -0.000001 -7.229310 2.306437 28.824877 -6.095809 6.654332 89.099469 -0.000004 0.000007 0.000009 -0.000001 0.000000 0.000001 1.979240 -1.325608 18.138054 -4.901313 13.934088 64.641382 -0.000002 -0.000004 0.000000 0.000004 -0.000000 -0.000001 -10.424495 7.517055 13.315555 31.044128 0.020754 -1.131669 -14.669998 9.079411 -8.898951 -1.331645 -1.972906 0.130344 -0.000000 0.000000 -0.000000 -10.427732 10.319986 -8.573269 25.513586 -0.107639 0.942295 -10.629618 -9.270290 11.274139 -0.857533 -0.469503 0.395730 0.000000 0.000000 -0.000000 
4.106832 193.704376 8.205729 -3.424755 -23.439246 -2.920101 2.984120 -3.095214 -2.064779 5.864839 -6.300706 -4.007840 5.864838 -6.300695 -4.007836 5.291636 13.764748 16.641575 -11.384012 21.311619 -9.446727 0.000000 0.000000 -0.000000 0.000000 0.000000 -0.000000 0.000000 0.000000 -0.000000 0.546568 -10.358888 -13.475134 4.858782 -3.936713 -31.603880 -0.034261 -45.781115 0.063078 16.707182 0.744260 6.910278 1.591422 6.797385 -9.921237 -0.326751 -1.198712 -21.250773 0.000001 0.000007 0.000003 0.000001 -0.000001 0.000003 7.408954 3.479740 -2.352109 -2.600074 0.903117 2.144453 0.000014 -0.000020 -0.000006 -0.000001 0.000000 0.000003 7.088383 -2.408304 -11.774084 0.065146 0.753827 -16.203142 -0.000001 -0.000003 0.000005 0.000003 -0.000001 -0.000002 1.494200 10.679457 -12.524135 -0.378582 -3.271648 -29.132072 -0.000001 0.000015 0.000011 -0.000001 0.000001 0.000003 -2.420638 17.103525 -18.239428 -1.141663 -6.641947 -34.162810 -0.000005 0.000002 0.000002 -0.000001 0.000000 0.000000 0.746649 3.097401 -5.672081 32.820678 -7.862823 36.416123 -0.251661 118.065557 0.168655 -23.428988 -6.831790 24.021900 -0.297904 -0.513814 14.375062 -3.991043 3.022383 97.127216 -0.000008 -0.000001 0.000012 -0.000001 0.000003 0.000000 16.527605 -17.345568 -27.692136 30.648920 8.722562 -4.000008 0.000004 0.000003 0.000003 0.000002 -0.000001 0.000000 2.727830 -4.617175 -13.729565 0.358409 -1.535185 28.585978 0.000004 0.000010 0.000001 0.000004 -0.000002 -0.000003 -7.253373 2.450029 28.419951 -6.125738 6.656119 89.404984 -0.000004 0.000007 0.000010 -0.000001 -0.000000 0.000004 2.462448 -2.629185 18.310706 -5.039759 14.027768 65.331832 -0.000002 -0.000003 0.000000 0.000003 0.000001 0.000001 -10.348437 7.220615 13.085525 30.768127 0.001618 -1.124114 -14.569608 9.116046 -8.845300 -1.343541 -1.980265 0.067456 0.000000 0.000000 0.000000 -10.312505 10.174264 -8.730805 25.472922 -0.092321 0.941227 -10.750299 -9.574105 11.330109 -0.857104 -0.453254 0.388829 -0.000000 0.000001 -0.000000 
3.853546 193.690659 8.238003 -3.244802 -22.871992 -2.788065 2.792677 -2.772411 -1.851759 5.501439 -5.638326 -3.606812 5.501439 -5.638324 -3.606814 5.661352 12.635806 15.829486 -11.540044 19.848554 -9.132646 -0.000000 -0.000000 -0.000000 -0.000000 -0.000000 -0.000000 -0.000000 -0.000000 -0.000000 0.581506 -10.275064 -13.148744 4.664419 -4.510898 -32.855536 -0.036565 -45.500548 0.060227 16.928643 0.581844 6.867157 1.596516 6.822054 -9.706740 -0.311992 -1.160062 -20.744557 0.000001 0.000006 0.000002 0.000001 -0.000000 0.000001 7.701668 2.369763 -3.488476 -2.551494 0.879953 2.138186 0.000015 -0.000019 -0.000001 -0.000001 0.000000 0.000001 6.956385 -3.063478 -11.717459 0.062125 0.746119 -15.703711 -0.000003 0.000002 0.000005 -0.000000 0.000002 -0.000002 1.489339 10.693357 -12.231341 -0.355111 -3.230176 -28.579081 -0.000001 0.000014 0.000009 -0.000000 0.000000 0.000001 -2.246205 17.719456 -17.967508 -1.105975 -6.592156 -33.637083 -0.000005 0.000003 0.000002 0.000000 -0.000001 0.000000 0.903143 3.751655 -5.006045 25.985485 -9.756253 34.675921 -0.249355 118.035286 0.173130 -22.253586 -4.070661 18.881819 -0.167295 -0.811165 12.944017 -3.995398 3.020751 97.180239 0.000000 0.000001 0.000015 -0.000004 0.000003 -0.000002 18.497301 -16.052830 -26.158747 30.728099 8.734357 -4.034088 0.000004 -0.000002 0.000004 0.000002 0.000001 0.000001 3.226064 -3.152077 -16.209019 0.409681 -1.598493 30.466055 -0.000002 0.000006 0.000000 0.000002 -0.000002 0.000001 -7.169333 2.373096 28.067252 -6.153223 6.657141 89.658329 -0.000001 0.000006 0.000012 0.000001 -0.000000 0.000000 2.895332 -4.079103 18.797360 -5.226153 14.108473 66.138778 -0.000001 -0.000002 0.000002 -0.000001 -0.000002 -0.000001 -10.424334 6.643148 12.956039 30.628822 -0.040979 -1.123067 -14.531677 9.241196 -8.807123 -1.305129 -1.965126 0.000040 0.000000 -0.000000 0.000000 -10.331886 9.709455 -8.822619 25.522959 -0.076389 0.943743 -10.870362 -9.721122 11.482195 -0.887715 -0.409049 0.369227 -0.000000 0.000001 0.000000 
3.547848 193.624176 8.138706 -3.172532 -22.275748 -2.693268 2.639358 -2.454141 -1.630467 5.212705 -4.986751 -3.185839 5.212706 -4.986753 -3.185842 6.066873 11.486642 14.942871 -11.693228 18.421901 -9.003146 0.000000 -0.000001 0.000000 0.000000 -0.000001 0.000000 0.000000 -0.000001 0.000000 0.610356 -10.203737 -12.878938 4.919422 -5.314234 -33.642257 -0.038169 -45.456261 0.058496 17.178233 0.362432 6.889962 1.584740 6.816310 -9.280099 -0.297128 -1.120214 -20.224470 0.000001 0.000006 0.000001 -0.000000 -0.000001 0.000000 7.911699 0.904070 -4.527615 -2.528965 0.869188 2.135397 0.000017 -0.000019 -0.000008 0.000000 0.000000 -0.000002 6.823347 -3.770422 -11.555275 0.058927 0.738014 -15.178188 -0.000002 0.000002 0.000007 -0.000000 -0.000000 -0.000001 1.489196 10.726024 -11.932085 -0.332662 -3.189056 -28.032462 -0.000001 0.000015 0.000010 -0.000001 0.000001 0.000002 -2.024092 18.461026 -17.791861 -1.072430 -6.542268 -33.119413 -0.000004 0.000003 0.000002 -0.000002 -0.000000 0.000001 1.015205 4.279129 -4.141323 19.777649 -9.886218 33.379449 -0.245707 117.204380 0.175421 -20.609654 -0.745087 9.977816 -0.577210 0.432712 15.289658 -3.983276 3.022377 96.950676 0.000000 -0.000001 0.000014 0.000004 0.000004 -0.000000 21.128336 -14.210370 -23.714021 30.728116 8.734361 -4.034120 0.000003 -0.000002 0.000004 -0.000001 0.000000 -0.000002 3.112059 -3.670558 -17.007547 0.487806 -1.686665 33.175185 -0.000002 0.000009 0.000001 -0.000002 -0.000002 0.000000 -7.936612 3.226895 30.271142 -6.141650 6.656844 89.558472 -0.000002 0.000003 0.000009 -0.000004 -0.000001 -0.000000 2.930023 -3.841733 21.885786 -5.226793 14.108715 66.141448 -0.000002 -0.000004 0.000002 -0.000001 -0.000000 0.000001 -10.526669 5.931116 12.854641 30.687856 -0.120929 -1.132168 -14.492350 9.448513 -8.870683 -1.278931 -1.920356 -0.000053 0.000000 -0.000000 -0.000000 -10.442953 9.037733 -8.937205 25.820039 -0.060932 0.955518 -11.031112 -9.631297 11.660865 -0.928236 -0.362763 0.348512 0.000000 0.000002 -0.000000 
3.184758 193.502090 7.929352 -3.236445 -21.702042 -2.585296 2.524663 -2.136087 -1.427763 4.998736 -4.338550 -2.794931 4.998738 -4.338546 -2.794929 6.525636 10.370096 13.869135 -11.759594 16.956911 -8.810300 0.000000 0.000000 -0.000000 0.000000 0.000000 -0.000000 0.000000 0.000000 -0.000000 0.619512 -10.179731 -12.795619 5.303417 -6.319681 -33.872496 -0.039878 -45.106685 0.057456 17.235115 0.081657 6.956907 1.577536 6.798549 -8.924906 -0.282624 -1.080492 -19.707599 -0.000000 0.000006 0.000002 0.000002 -0.000000 0.000000 8.273993 -0.478102 -5.709537 -2.546762 0.877595 2.137917 0.000016 -0.000017 -0.000007 0.000001 0.000001 -0.000004 6.707183 -4.419214 -11.372794 0.055607 0.729548 -14.633300 -0.000002 -0.000003 0.000006 -0.000000 0.000001 -0.000000 1.495930 10.737638 -11.693770 -0.309281 -3.145730 -27.459816 -0.000001 0.000014 0.000011 -0.000000 0.000000 0.000001 -1.815094 19.167842 -17.607456 -1.038365 -6.490934 -32.589510 -0.000002 0.000004 0.000002 -0.000001 -0.000000 0.000001 1.105101 4.907946 -3.143877 14.545728 -8.756435 32.785403 -0.238596 115.977910 0.173823 -16.395051 2.007521 -1.992487 -1.775423 3.396278 18.995207 -3.978932 3.022955 96.868051 -0.000002 -0.000001 0.000014 0.000003 -0.000000 -0.000001 24.791384 -9.762537 -20.332155 30.708759 8.732033 -4.031334 0.000004 -0.000004 0.000004 -0.000002 0.000002 0.000001 2.911077 -3.309969 -11.304423 0.401615 -1.588904 30.177852 0.000005 0.000005 -0.000001 0.000002 -0.000001 0.000000 -9.271034 4.671706 33.060216 -6.119125 6.656242 89.364050 -0.000001 0.000008 0.000011 -0.000000 0.000000 -0.000001 2.471332 -2.272035 26.201816 -4.898377 13.990530 64.787329 -0.000003 -0.000005 -0.000001 -0.000001 0.000001 -0.000000 -10.606959 5.279872 12.725783 30.901705 -0.159560 -1.143359 -14.529380 9.561184 -8.790533 -1.164226 -1.867300 -0.103641 0.000000 0.000000 -0.000000 -10.611430 8.253103 -9.116802 26.383288 -0.044529 0.977093 -11.323798 -9.348661 11.746709 -0.938562 -0.330672 0.334620 0.000000 -0.000002 0.000000 
